<svg id="visual" viewBox="0 0 900 400" width="900" height="400" xmlns="http://www.w3.org/2000/svg" xmlns:xlink="http://www.w3.org/1999/xlink" version="1.1"><path d="M0 233L21.5 230.2C43 227.3 86 221.7 128.8 217.8C171.7 214 214.3 212 257.2 209.3C300 206.7 343 203.3 385.8 197C428.7 190.7 471.3 181.3 514.2 177.7C557 174 600 176 642.8 178.8C685.7 181.7 728.3 185.3 771.2 193C814 200.7 857 212.3 878.5 218.2L900 224L900 401L878.5 401C857 401 814 401 771.2 401C728.3 401 685.7 401 642.8 401C600 401 557 401 514.2 401C471.3 401 428.7 401 385.8 401C343 401 300 401 257.2 401C214.3 401 171.7 401 128.8 401C86 401 43 401 21.5 401L0 401Z" fill="#6e1869"></path><path d="M0 209L21.5 218.7C43 228.3 86 247.7 128.8 258.2C171.7 268.7 214.3 270.3 257.2 268.2C300 266 343 260 385.8 258C428.7 256 471.3 258 514.2 260.7C557 263.3 600 266.7 642.8 259.5C685.7 252.3 728.3 234.7 771.2 233.2C814 231.7 857 246.3 878.5 253.7L900 261L900 401L878.5 401C857 401 814 401 771.2 401C728.3 401 685.7 401 642.8 401C600 401 557 401 514.2 401C471.3 401 428.7 401 385.8 401C343 401 300 401 257.2 401C214.3 401 171.7 401 128.8 401C86 401 43 401 21.5 401L0 401Z" fill="#8c0e65"></path><path d="M0 239L21.5 246.5C43 254 86 269 128.8 274.5C171.7 280 214.3 276 257.2 276.5C300 277 343 282 385.8 282.3C428.7 282.7 471.3 278.3 514.2 275.7C557 273 600 272 642.8 270C685.7 268 728.3 265 771.2 261.7C814 258.3 857 254.7 878.5 252.8L900 251L900 401L878.5 401C857 401 814 401 771.2 401C728.3 401 685.7 401 642.8 401C600 401 557 401 514.2 401C471.3 401 428.7 401 385.8 401C343 401 300 401 257.2 401C214.3 401 171.7 401 128.8 401C86 401 43 401 21.5 401L0 401Z" fill="#a7065d"></path><path d="M0 295L21.5 300.5C43 306 86 317 128.8 313.2C171.7 309.3 214.3 290.7 257.2 287.3C300 284 343 296 385.8 303.2C428.7 310.3 471.3 312.7 514.2 314.5C557 316.3 600 317.7 642.8 310.3C685.7 303 728.3 287 771.2 279.8C814 272.7 857 274.3 878.5 275.2L900 276L900 401L878.5 401C857 401 814 401 771.2 401C728.3 401 685.7 401 642.8 401C600 401 557 401 514.2 401C471.3 401 428.7 401 385.8 401C343 401 300 401 257.2 401C214.3 401 171.7 401 128.8 401C86 401 43 401 21.5 401L0 401Z" fill="#be1052"></path><path d="M0 314L21.5 313.2C43 312.3 86 310.7 128.8 309.2C171.7 307.7 214.3 306.3 257.2 307.3C300 308.3 343 311.7 385.8 317.3C428.7 323 471.3 331 514.2 336C557 341 600 343 642.8 337.7C685.7 332.3 728.3 319.7 771.2 320C814 320.3 857 333.7 878.5 340.3L900 347L900 401L878.5 401C857 401 814 401 771.2 401C728.3 401 685.7 401 642.8 401C600 401 557 401 514.2 401C471.3 401 428.7 401 385.8 401C343 401 300 401 257.2 401C214.3 401 171.7 401 128.8 401C86 401 43 401 21.5 401L0 401Z" fill="#d02643"></path><path d="M0 341L21.5 344.3C43 347.7 86 354.3 128.8 354.8C171.7 355.3 214.3 349.7 257.2 347.2C300 344.7 343 345.3 385.8 346.5C428.7 347.7 471.3 349.3 514.2 354.2C557 359 600 367 642.8 365C685.7 363 728.3 351 771.2 350.7C814 350.3 857 361.7 878.5 367.3L900 373L900 401L878.5 401C857 401 814 401 771.2 401C728.3 401 685.7 401 642.8 401C600 401 557 401 514.2 401C471.3 401 428.7 401 385.8 401C343 401 300 401 257.2 401C214.3 401 171.7 401 128.8 401C86 401 43 401 21.5 401L0 401Z" fill="#dd3f31"></path></svg>