<svg id="visual" viewBox="0 0 900 400" width="900" height="400" xmlns="http://www.w3.org/2000/svg" xmlns:xlink="http://www.w3.org/1999/xlink" version="1.1"><path d="M0 173L21.5 175.7C43 178.3 86 183.7 128.8 196.5C171.7 209.3 214.3 229.7 257.2 231.8C300 234 343 218 385.8 206.2C428.7 194.3 471.3 186.7 514.2 192.2C557 197.7 600 216.3 642.8 224.8C685.7 233.3 728.3 231.7 771.2 221.5C814 211.3 857 192.7 878.5 183.3L900 174L900 401L878.5 401C857 401 814 401 771.2 401C728.3 401 685.7 401 642.8 401C600 401 557 401 514.2 401C471.3 401 428.7 401 385.8 401C343 401 300 401 257.2 401C214.3 401 171.7 401 128.8 401C86 401 43 401 21.5 401L0 401Z" fill="#6e1869"></path><path d="M0 211L21.5 210.7C43 210.3 86 209.7 128.8 219.7C171.7 229.7 214.3 250.3 257.2 257.7C300 265 343 259 385.8 253.5C428.7 248 471.3 243 514.2 242.5C557 242 600 246 642.8 246.2C685.7 246.3 728.3 242.7 771.2 243.5C814 244.3 857 249.7 878.5 252.3L900 255L900 401L878.5 401C857 401 814 401 771.2 401C728.3 401 685.7 401 642.8 401C600 401 557 401 514.2 401C471.3 401 428.7 401 385.8 401C343 401 300 401 257.2 401C214.3 401 171.7 401 128.8 401C86 401 43 401 21.5 401L0 401Z" fill="#8c0e65"></path><path d="M0 296L21.5 297.3C43 298.7 86 301.3 128.8 301.2C171.7 301 214.3 298 257.2 290.8C300 283.7 343 272.3 385.8 273C428.7 273.7 471.3 286.3 514.2 290.8C557 295.3 600 291.7 642.8 282C685.7 272.3 728.3 256.7 771.2 257.5C814 258.3 857 275.7 878.5 284.3L900 293L900 401L878.5 401C857 401 814 401 771.2 401C728.3 401 685.7 401 642.8 401C600 401 557 401 514.2 401C471.3 401 428.7 401 385.8 401C343 401 300 401 257.2 401C214.3 401 171.7 401 128.8 401C86 401 43 401 21.5 401L0 401Z" fill="#a7065d"></path><path d="M0 308L21.5 304.2C43 300.3 86 292.7 128.8 295.2C171.7 297.7 214.3 310.3 257.2 317C300 323.7 343 324.3 385.8 319.5C428.7 314.7 471.3 304.3 514.2 303.2C557 302 600 310 642.8 314.5C685.7 319 728.3 320 771.2 317C814 314 857 307 878.5 303.5L900 300L900 401L878.5 401C857 401 814 401 771.2 401C728.3 401 685.7 401 642.8 401C600 401 557 401 514.2 401C471.3 401 428.7 401 385.8 401C343 401 300 401 257.2 401C214.3 401 171.7 401 128.8 401C86 401 43 401 21.5 401L0 401Z" fill="#be1052"></path><path d="M0 345L21.5 345C43 345 86 345 128.8 344.8C171.7 344.7 214.3 344.3 257.2 338.5C300 332.7 343 321.3 385.8 319.8C428.7 318.3 471.3 326.7 514.2 328C557 329.3 600 323.7 642.8 323.3C685.7 323 728.3 328 771.2 326C814 324 857 315 878.5 310.5L900 306L900 401L878.5 401C857 401 814 401 771.2 401C728.3 401 685.7 401 642.8 401C600 401 557 401 514.2 401C471.3 401 428.7 401 385.8 401C343 401 300 401 257.2 401C214.3 401 171.7 401 128.8 401C86 401 43 401 21.5 401L0 401Z" fill="#d02643"></path><path d="M0 340L21.5 345.7C43 351.3 86 362.7 128.8 363.2C171.7 363.7 214.3 353.3 257.2 351.3C300 349.3 343 355.7 385.8 359.2C428.7 362.7 471.3 363.3 514.2 362C557 360.7 600 357.3 642.8 357C685.7 356.7 728.3 359.3 771.2 361.7C814 364 857 366 878.5 367L900 368L900 401L878.5 401C857 401 814 401 771.2 401C728.3 401 685.7 401 642.8 401C600 401 557 401 514.2 401C471.3 401 428.7 401 385.8 401C343 401 300 401 257.2 401C214.3 401 171.7 401 128.8 401C86 401 43 401 21.5 401L0 401Z" fill="#dd3f31"></path></svg>