<svg id="visual" viewBox="0 0 900 400" width="900" height="400" xmlns="http://www.w3.org/2000/svg" xmlns:xlink="http://www.w3.org/1999/xlink" version="1.1"><path d="M0 211L21.5 210.8C43 210.7 86 210.3 128.8 201.3C171.7 192.3 214.3 174.7 257.2 175.8C300 177 343 197 385.8 209.8C428.7 222.7 471.3 228.3 514.2 231C557 233.7 600 233.3 642.8 224C685.7 214.7 728.3 196.3 771.2 193.3C814 190.3 857 202.7 878.5 208.8L900 215L900 0L878.5 0C857 0 814 0 771.2 0C728.3 0 685.7 0 642.8 0C600 0 557 0 514.2 0C471.3 0 428.7 0 385.8 0C343 0 300 0 257.2 0C214.3 0 171.7 0 128.8 0C86 0 43 0 21.5 0L0 0Z" fill="#6e1869"></path><path d="M0 171L21.5 170.5C43 170 86 169 128.8 162.2C171.7 155.3 214.3 142.7 257.2 137C300 131.3 343 132.7 385.8 133.5C428.7 134.3 471.3 134.7 514.2 140.5C557 146.3 600 157.7 642.8 156.5C685.7 155.3 728.3 141.7 771.2 144.3C814 147 857 166 878.5 175.5L900 185L900 0L878.5 0C857 0 814 0 771.2 0C728.3 0 685.7 0 642.8 0C600 0 557 0 514.2 0C471.3 0 428.7 0 385.8 0C343 0 300 0 257.2 0C214.3 0 171.7 0 128.8 0C86 0 43 0 21.5 0L0 0Z" fill="#8c0e65"></path><path d="M0 157L21.5 155.2C43 153.3 86 149.7 128.8 144.8C171.7 140 214.3 134 257.2 127.7C300 121.3 343 114.7 385.8 115.2C428.7 115.7 471.3 123.3 514.2 121.2C557 119 600 107 642.8 101.5C685.7 96 728.3 97 771.2 106.8C814 116.7 857 135.3 878.5 144.7L900 154L900 0L878.5 0C857 0 814 0 771.2 0C728.3 0 685.7 0 642.8 0C600 0 557 0 514.2 0C471.3 0 428.7 0 385.8 0C343 0 300 0 257.2 0C214.3 0 171.7 0 128.8 0C86 0 43 0 21.5 0L0 0Z" fill="#a7065d"></path><path d="M0 118L21.5 111.5C43 105 86 92 128.8 88.8C171.7 85.7 214.3 92.3 257.2 93.7C300 95 343 91 385.8 92.2C428.7 93.3 471.3 99.7 514.2 97.5C557 95.3 600 84.7 642.8 79.8C685.7 75 728.3 76 771.2 79.3C814 82.7 857 88.3 878.5 91.2L900 94L900 0L878.5 0C857 0 814 0 771.2 0C728.3 0 685.7 0 642.8 0C600 0 557 0 514.2 0C471.3 0 428.7 0 385.8 0C343 0 300 0 257.2 0C214.3 0 171.7 0 128.8 0C86 0 43 0 21.5 0L0 0Z" fill="#be1052"></path><path d="M0 93L21.5 89.5C43 86 86 79 128.8 76.3C171.7 73.7 214.3 75.3 257.2 71.5C300 67.7 343 58.3 385.8 58.5C428.7 58.7 471.3 68.3 514.2 70C557 71.7 600 65.3 642.8 63.7C685.7 62 728.3 65 771.2 68.5C814 72 857 76 878.5 78L900 80L900 0L878.5 0C857 0 814 0 771.2 0C728.3 0 685.7 0 642.8 0C600 0 557 0 514.2 0C471.3 0 428.7 0 385.8 0C343 0 300 0 257.2 0C214.3 0 171.7 0 128.8 0C86 0 43 0 21.5 0L0 0Z" fill="#d02643"></path><path d="M0 40L21.5 38.3C43 36.7 86 33.3 128.8 35.8C171.7 38.3 214.3 46.7 257.2 48.7C300 50.7 343 46.3 385.8 40.3C428.7 34.3 471.3 26.7 514.2 23.2C557 19.7 600 20.3 642.8 23.5C685.7 26.7 728.3 32.3 771.2 35C814 37.7 857 37.3 878.5 37.2L900 37L900 0L878.5 0C857 0 814 0 771.2 0C728.3 0 685.7 0 642.8 0C600 0 557 0 514.2 0C471.3 0 428.7 0 385.8 0C343 0 300 0 257.2 0C214.3 0 171.7 0 128.8 0C86 0 43 0 21.5 0L0 0Z" fill="#dd3f31"></path></svg>