<svg id="visual" viewBox="0 0 900 400" width="900" height="400" xmlns="http://www.w3.org/2000/svg" xmlns:xlink="http://www.w3.org/1999/xlink" version="1.1"><path d="M0 213L21.5 206.2C43 199.3 86 185.7 128.8 184.3C171.7 183 214.3 194 257.2 192.3C300 190.7 343 176.3 385.8 172C428.7 167.7 471.3 173.3 514.2 174.5C557 175.7 600 172.3 642.8 170.8C685.7 169.3 728.3 169.7 771.2 172C814 174.3 857 178.7 878.5 180.8L900 183L900 0L878.5 0C857 0 814 0 771.2 0C728.3 0 685.7 0 642.8 0C600 0 557 0 514.2 0C471.3 0 428.7 0 385.8 0C343 0 300 0 257.2 0C214.3 0 171.7 0 128.8 0C86 0 43 0 21.5 0L0 0Z" fill="#6e1869"></path><path d="M0 149L21.5 145.2C43 141.3 86 133.7 128.8 138.5C171.7 143.3 214.3 160.7 257.2 162.3C300 164 343 150 385.8 146.5C428.7 143 471.3 150 514.2 148.2C557 146.3 600 135.7 642.8 130.8C685.7 126 728.3 127 771.2 136.3C814 145.7 857 163.3 878.5 172.2L900 181L900 0L878.5 0C857 0 814 0 771.2 0C728.3 0 685.7 0 642.8 0C600 0 557 0 514.2 0C471.3 0 428.7 0 385.8 0C343 0 300 0 257.2 0C214.3 0 171.7 0 128.8 0C86 0 43 0 21.5 0L0 0Z" fill="#8c0e65"></path><path d="M0 147L21.5 145.7C43 144.3 86 141.7 128.8 143.2C171.7 144.7 214.3 150.3 257.2 152.8C300 155.3 343 154.7 385.8 146.8C428.7 139 471.3 124 514.2 116.2C557 108.3 600 107.7 642.8 109C685.7 110.3 728.3 113.7 771.2 116.8C814 120 857 123 878.5 124.5L900 126L900 0L878.5 0C857 0 814 0 771.2 0C728.3 0 685.7 0 642.8 0C600 0 557 0 514.2 0C471.3 0 428.7 0 385.8 0C343 0 300 0 257.2 0C214.3 0 171.7 0 128.8 0C86 0 43 0 21.5 0L0 0Z" fill="#a7065d"></path><path d="M0 126L21.5 118.7C43 111.3 86 96.7 128.8 91.8C171.7 87 214.3 92 257.2 95.5C300 99 343 101 385.8 103.3C428.7 105.7 471.3 108.3 514.2 107C557 105.7 600 100.3 642.8 100C685.7 99.7 728.3 104.3 771.2 106.3C814 108.3 857 107.7 878.5 107.3L900 107L900 0L878.5 0C857 0 814 0 771.2 0C728.3 0 685.7 0 642.8 0C600 0 557 0 514.2 0C471.3 0 428.7 0 385.8 0C343 0 300 0 257.2 0C214.3 0 171.7 0 128.8 0C86 0 43 0 21.5 0L0 0Z" fill="#be1052"></path><path d="M0 61L21.5 65.3C43 69.7 86 78.3 128.8 76C171.7 73.7 214.3 60.3 257.2 58.7C300 57 343 67 385.8 74.7C428.7 82.3 471.3 87.7 514.2 87.2C557 86.7 600 80.3 642.8 80.3C685.7 80.3 728.3 86.7 771.2 83.8C814 81 857 69 878.5 63L900 57L900 0L878.5 0C857 0 814 0 771.2 0C728.3 0 685.7 0 642.8 0C600 0 557 0 514.2 0C471.3 0 428.7 0 385.8 0C343 0 300 0 257.2 0C214.3 0 171.7 0 128.8 0C86 0 43 0 21.5 0L0 0Z" fill="#d02643"></path><path d="M0 38L21.5 39C43 40 86 42 128.8 41.5C171.7 41 214.3 38 257.2 38.2C300 38.3 343 41.7 385.8 41C428.7 40.3 471.3 35.7 514.2 34.3C557 33 600 35 642.8 35.3C685.7 35.7 728.3 34.3 771.2 32.7C814 31 857 29 878.5 28L900 27L900 0L878.5 0C857 0 814 0 771.2 0C728.3 0 685.7 0 642.8 0C600 0 557 0 514.2 0C471.3 0 428.7 0 385.8 0C343 0 300 0 257.2 0C214.3 0 171.7 0 128.8 0C86 0 43 0 21.5 0L0 0Z" fill="#dd3f31"></path></svg>